<svg xmlns="http://www.w3.org/2000/svg" viewBox="0 0 32 32" width="512" height="512" shape-rendering="crispEdges">
  <rect x="6" y="2" width="20" height="1" fill="#182130"/>
  <rect x="4" y="3" width="24" height="1" fill="#182130"/>
  <rect x="3" y="4" width="26" height="1" fill="#182130"/>
  <rect x="3" y="5" width="3" height="1" fill="#182130"/>
  <rect x="6" y="5" width="18" height="1" fill="#D3DAE2"/>
  <rect x="24" y="5" width="5" height="1" fill="#182130"/>
  <rect x="2" y="6" width="3" height="1" fill="#182130"/>
  <rect x="5" y="6" width="2" height="1" fill="#D3DAE2"/>
  <rect x="7" y="6" width="1" height="1" fill="#D9463B"/>
  <rect x="8" y="6" width="1" height="1" fill="#D3DAE2"/>
  <rect x="9" y="6" width="1" height="1" fill="#F2C53D"/>
  <rect x="10" y="6" width="1" height="1" fill="#D3DAE2"/>
  <rect x="11" y="6" width="1" height="1" fill="#2F9E62"/>
  <rect x="12" y="6" width="13" height="1" fill="#D3DAE2"/>
  <rect x="25" y="6" width="5" height="1" fill="#182130"/>
  <rect x="2" y="7" width="3" height="1" fill="#182130"/>
  <rect x="5" y="7" width="20" height="1" fill="#D3DAE2"/>
  <rect x="25" y="7" width="5" height="1" fill="#182130"/>
  <rect x="2" y="8" width="3" height="1" fill="#182130"/>
  <rect x="5" y="8" width="20" height="1" fill="#E9EDF1"/>
  <rect x="25" y="8" width="5" height="1" fill="#182130"/>
  <rect x="2" y="9" width="3" height="1" fill="#182130"/>
  <rect x="5" y="9" width="20" height="1" fill="#E9EDF1"/>
  <rect x="25" y="9" width="5" height="1" fill="#182130"/>
  <rect x="2" y="10" width="3" height="1" fill="#182130"/>
  <rect x="5" y="10" width="2" height="1" fill="#E9EDF1"/>
  <rect x="7" y="10" width="2" height="1" fill="#182130"/>
  <rect x="9" y="10" width="16" height="1" fill="#E9EDF1"/>
  <rect x="25" y="10" width="5" height="1" fill="#182130"/>
  <rect x="2" y="11" width="3" height="1" fill="#182130"/>
  <rect x="5" y="11" width="3" height="1" fill="#E9EDF1"/>
  <rect x="8" y="11" width="2" height="1" fill="#182130"/>
  <rect x="10" y="11" width="2" height="1" fill="#E9EDF1"/>
  <rect x="12" y="11" width="2" height="1" fill="#2F9E62"/>
  <rect x="14" y="11" width="11" height="1" fill="#E9EDF1"/>
  <rect x="25" y="11" width="5" height="1" fill="#182130"/>
  <rect x="2" y="12" width="3" height="1" fill="#182130"/>
  <rect x="5" y="12" width="4" height="1" fill="#E9EDF1"/>
  <rect x="9" y="12" width="2" height="1" fill="#182130"/>
  <rect x="11" y="12" width="1" height="1" fill="#E9EDF1"/>
  <rect x="12" y="12" width="2" height="1" fill="#2F9E62"/>
  <rect x="14" y="12" width="11" height="1" fill="#E9EDF1"/>
  <rect x="25" y="12" width="5" height="1" fill="#182130"/>
  <rect x="2" y="13" width="3" height="1" fill="#182130"/>
  <rect x="5" y="13" width="3" height="1" fill="#E9EDF1"/>
  <rect x="8" y="13" width="2" height="1" fill="#182130"/>
  <rect x="10" y="13" width="2" height="1" fill="#E9EDF1"/>
  <rect x="12" y="13" width="2" height="1" fill="#2F9E62"/>
  <rect x="14" y="13" width="3" height="1" fill="#E9EDF1"/>
  <rect x="17" y="13" width="1" height="1" fill="#5CC8B0"/>
  <rect x="18" y="13" width="7" height="1" fill="#E9EDF1"/>
  <rect x="25" y="13" width="5" height="1" fill="#182130"/>
  <rect x="2" y="14" width="3" height="1" fill="#182130"/>
  <rect x="5" y="14" width="2" height="1" fill="#E9EDF1"/>
  <rect x="7" y="14" width="2" height="1" fill="#182130"/>
  <rect x="9" y="14" width="3" height="1" fill="#E9EDF1"/>
  <rect x="12" y="14" width="2" height="1" fill="#2F9E62"/>
  <rect x="14" y="14" width="2" height="1" fill="#E9EDF1"/>
  <rect x="16" y="14" width="3" height="1" fill="#5CC8B0"/>
  <rect x="19" y="14" width="6" height="1" fill="#E9EDF1"/>
  <rect x="25" y="14" width="5" height="1" fill="#182130"/>
  <rect x="2" y="15" width="3" height="1" fill="#182130"/>
  <rect x="5" y="15" width="11" height="1" fill="#E9EDF1"/>
  <rect x="16" y="15" width="4" height="1" fill="#5CC8B0"/>
  <rect x="20" y="15" width="3" height="1" fill="#E9EDF1"/>
  <rect x="23" y="15" width="2" height="1" fill="#5CC8B0"/>
  <rect x="25" y="15" width="5" height="1" fill="#182130"/>
  <rect x="2" y="16" width="3" height="1" fill="#182130"/>
  <rect x="5" y="16" width="11" height="1" fill="#E9EDF1"/>
  <rect x="16" y="16" width="11" height="1" fill="#5CC8B0"/>
  <rect x="27" y="16" width="3" height="1" fill="#182130"/>
  <rect x="2" y="17" width="3" height="1" fill="#182130"/>
  <rect x="5" y="17" width="10" height="1" fill="#E9EDF1"/>
  <rect x="15" y="17" width="13" height="1" fill="#5CC8B0"/>
  <rect x="28" y="17" width="2" height="1" fill="#182130"/>
  <rect x="2" y="18" width="3" height="1" fill="#182130"/>
  <rect x="5" y="18" width="10" height="1" fill="#E9EDF1"/>
  <rect x="15" y="18" width="2" height="1" fill="#5CC8B0"/>
  <rect x="17" y="18" width="1" height="1" fill="#FFFFFF"/>
  <rect x="18" y="18" width="1" height="1" fill="#182130"/>
  <rect x="19" y="18" width="3" height="1" fill="#5CC8B0"/>
  <rect x="22" y="18" width="1" height="1" fill="#FFFFFF"/>
  <rect x="23" y="18" width="1" height="1" fill="#182130"/>
  <rect x="24" y="18" width="2" height="1" fill="#5CC8B0"/>
  <rect x="26" y="18" width="2" height="1" fill="#2F8F7A"/>
  <rect x="28" y="18" width="2" height="1" fill="#182130"/>
  <rect x="2" y="19" width="3" height="1" fill="#182130"/>
  <rect x="5" y="19" width="10" height="1" fill="#E9EDF1"/>
  <rect x="15" y="19" width="2" height="1" fill="#5CC8B0"/>
  <rect x="17" y="19" width="2" height="1" fill="#182130"/>
  <rect x="19" y="19" width="3" height="1" fill="#5CC8B0"/>
  <rect x="22" y="19" width="2" height="1" fill="#182130"/>
  <rect x="24" y="19" width="2" height="1" fill="#5CC8B0"/>
  <rect x="26" y="19" width="1" height="1" fill="#182130"/>
  <rect x="27" y="19" width="1" height="1" fill="#2F8F7A"/>
  <rect x="28" y="19" width="2" height="1" fill="#182130"/>
  <rect x="2" y="20" width="4" height="1" fill="#182130"/>
  <rect x="6" y="20" width="9" height="1" fill="#E9EDF1"/>
  <rect x="15" y="20" width="2" height="1" fill="#5CC8B0"/>
  <rect x="17" y="20" width="2" height="1" fill="#182130"/>
  <rect x="19" y="20" width="3" height="1" fill="#5CC8B0"/>
  <rect x="22" y="20" width="2" height="1" fill="#182130"/>
  <rect x="24" y="20" width="2" height="1" fill="#5CC8B0"/>
  <rect x="26" y="20" width="4" height="1" fill="#182130"/>
  <rect x="2" y="21" width="14" height="1" fill="#182130"/>
  <rect x="16" y="21" width="4" height="1" fill="#5CC8B0"/>
  <rect x="20" y="21" width="1" height="1" fill="#2F8F7A"/>
  <rect x="21" y="21" width="4" height="1" fill="#5CC8B0"/>
  <rect x="25" y="21" width="5" height="1" fill="#182130"/>
  <rect x="2" y="22" width="15" height="1" fill="#182130"/>
  <rect x="17" y="22" width="7" height="1" fill="#5CC8B0"/>
  <rect x="24" y="22" width="6" height="1" fill="#182130"/>
  <rect x="2" y="23" width="15" height="1" fill="#182130"/>
  <rect x="17" y="23" width="7" height="1" fill="#5CC8B0"/>
  <rect x="24" y="23" width="1" height="1" fill="#182130"/>
  <rect x="25" y="23" width="2" height="1" fill="#2F8F7A"/>
  <rect x="27" y="23" width="3" height="1" fill="#182130"/>
  <rect x="2" y="24" width="14" height="1" fill="#182130"/>
  <rect x="16" y="24" width="12" height="1" fill="#5CC8B0"/>
  <rect x="28" y="24" width="2" height="1" fill="#182130"/>
  <rect x="2" y="25" width="15" height="1" fill="#182130"/>
  <rect x="17" y="25" width="2" height="1" fill="#5CC8B0"/>
  <rect x="19" y="25" width="2" height="1" fill="#182130"/>
  <rect x="21" y="25" width="2" height="1" fill="#5CC8B0"/>
  <rect x="23" y="25" width="2" height="1" fill="#182130"/>
  <rect x="25" y="25" width="2" height="1" fill="#5CC8B0"/>
  <rect x="27" y="25" width="3" height="1" fill="#182130"/>
  <rect x="3" y="26" width="26" height="1" fill="#182130"/>
  <rect x="3" y="27" width="26" height="1" fill="#182130"/>
  <rect x="4" y="28" width="24" height="1" fill="#182130"/>
  <rect x="6" y="29" width="20" height="1" fill="#182130"/>
</svg>
